<?xml version="1.0" encoding="UTF-8"?>
<svg version="1.1" xmlns="http://www.w3.org/2000/svg" width="357" height="109">
<path d="M0 0 C117.81 0 235.62 0 357 0 C357 35.97 357 71.94 357 109 C239.19 109 121.38 109 0 109 C0 73.03 0 37.06 0 0 Z " fill="#000000" transform="translate(0,0)"/>
<path d="M0 0 C0.99319638 -0.00935994 0.99319638 -0.00935994 2.00645733 -0.01890898 C4.22382467 -0.03485642 6.44009533 -0.02222916 8.6574707 -0.00964355 C10.24761598 -0.01506395 11.83775623 -0.02218614 13.42788696 -0.03088379 C17.74608785 -0.04913014 22.06390678 -0.04204432 26.38211441 -0.02936745 C30.89928473 -0.01924653 35.41642216 -0.0286306 39.93359375 -0.03491211 C47.51967242 -0.04219117 55.10559536 -0.03259405 62.69165039 -0.0135498 C71.46454822 0.00821947 80.23707422 0.00116828 89.00996304 -0.02085543 C96.53958795 -0.03900208 104.06910087 -0.04157136 111.59874058 -0.03110075 C116.09700682 -0.02486176 120.59509823 -0.02404127 125.09335327 -0.0372467 C129.32223304 -0.04879396 133.55063302 -0.04080039 137.77946091 -0.01766968 C139.33228127 -0.01237652 140.88514195 -0.01390677 142.43794632 -0.02272034 C144.55634555 -0.03363642 146.67320319 -0.019963 148.79150391 0 C149.97726517 0.0015081 151.16302643 0.0030162 152.38471985 0.00457001 C156.02255084 0.61271869 157.20664809 1.58681174 159.39575195 4.50793457 C159.90368652 7.58154297 159.90368652 7.58154297 159.91333008 11.23254395 C159.92033936 11.89969925 159.92734863 12.56685455 159.93457031 13.25422668 C159.95213826 15.453806 159.94053348 17.65209278 159.92700195 19.85168457 C159.92969726 21.38338467 159.93358 22.9150831 159.93859863 24.44677734 C159.94449199 27.65466628 159.93593652 30.86210925 159.91723633 34.06994629 C159.89444619 38.179395 159.90757024 42.28779879 159.93152618 46.39720917 C159.94598895 49.55942643 159.94137613 52.72139645 159.93101501 55.88362122 C159.92834902 57.39866764 159.93161307 58.91373661 159.94093323 60.42875671 C159.95110756 62.54754989 159.93558926 64.66465742 159.91333008 66.7833252 C159.91014771 67.98815552 159.90696533 69.19298584 159.90368652 70.43432617 C159.27654335 74.22928841 158.41222925 75.17731598 155.39575195 77.50793457 C152.38471985 78.01129913 152.38471985 78.01129913 148.79150391 78.01586914 C147.79830753 78.02522908 147.79830753 78.02522908 146.78504658 78.03477812 C144.56767924 78.05072556 142.35140858 78.0380983 140.1340332 78.0255127 C138.54388793 78.03093309 136.95374767 78.03805528 135.36361694 78.04675293 C131.04541605 78.06499928 126.72759713 78.05791346 122.4093895 78.04523659 C117.89221918 78.03511567 113.37508175 78.04449974 108.85791016 78.05078125 C101.27183149 78.05806031 93.68590854 78.04846319 86.09985352 78.02941895 C77.32695569 78.00764967 68.55442969 78.01470086 59.78154087 78.03672457 C52.25191596 78.05487122 44.72240304 78.0574405 37.19276333 78.04696989 C32.69449709 78.0407309 28.19640567 78.03991041 23.69815063 78.05311584 C19.46927086 78.0646631 15.24087089 78.05666954 11.012043 78.03353882 C9.45922264 78.02824566 7.90636196 78.02977591 6.35355759 78.03858948 C4.23515836 78.04950556 2.11830072 78.03583214 0 78.01586914 C-1.18576126 78.01436104 -2.37152252 78.01285294 -3.59321594 78.01129913 C-7.23104693 77.40315045 -8.41514418 76.4290574 -10.60424805 73.50793457 C-11.11218262 70.43432617 -11.11218262 70.43432617 -11.12182617 66.7833252 C-11.12883545 66.11616989 -11.13584473 65.44901459 -11.14306641 64.76164246 C-11.16063435 62.56206314 -11.14902957 60.36377636 -11.13549805 58.16418457 C-11.13819335 56.63248447 -11.14207609 55.10078604 -11.14709473 53.5690918 C-11.15298808 50.36120287 -11.14443262 47.15375989 -11.12573242 43.94592285 C-11.10294228 39.83647414 -11.11606633 35.72807035 -11.14002228 31.61865997 C-11.15448505 28.45644271 -11.14987222 25.29447269 -11.13951111 22.13224792 C-11.13684511 20.6172015 -11.14010917 19.10213253 -11.14942932 17.58711243 C-11.15960365 15.46831925 -11.14408535 13.35121172 -11.12182617 11.23254395 C-11.11705261 9.42529846 -11.11705261 9.42529846 -11.11218262 7.58154297 C-10.03014875 1.03395086 -6.08514694 0.00773935 0 0 Z " fill="#FC9700" transform="translate(177.604248046875,15.4920654296875)"/>
<path d="M0 0 C4.00125 -0.0825 8.0025 -0.165 12.125 -0.25 C13.37555176 -0.28641602 14.62610352 -0.32283203 15.91455078 -0.36035156 C22.25114635 -0.42364606 26.2410292 -0.3650695 31 4 C34.16205748 7.68906706 34.52383784 11.07890732 34.3515625 15.78515625 C33.64757254 20.22029303 31.33534093 22.96167424 27.875 25.65234375 C24.11397966 27.41532203 20.74143723 27.32769022 16.6875 27.1875 C14.150625 27.125625 11.61375 27.06375 9 27 C9 32.28 9 37.56 9 43 C6.03 43 3.06 43 0 43 C0 28.81 0 14.62 0 0 Z " fill="#F8F8F8" transform="translate(29,32)"/>
<path d="M0 0 C4.45217259 2.311705 6.83146451 4.50714343 9 9 C9.83769856 15.29670081 10.49441908 22.8186586 6.8125 28.3125 C3.17145637 31.79171947 0.9786685 32.74740402 -3.9375 33.375 C-7 33 -7 33 -13 29 C-13 33.95 -13 38.9 -13 44 C-15.64 44 -18.28 44 -21 44 C-21 29.81 -21 15.62 -21 1 C-18.36 1 -15.72 1 -13 1 C-12.67 1.66 -12.34 2.32 -12 3 C-11.319375 2.505 -10.63875 2.01 -9.9375 1.5 C-6.25859625 -0.37858915 -4.0908775 -0.50238846 0 0 Z " fill="#060400" transform="translate(315,43)"/>
<path d="M0 0 C4.60989825 2.24696299 8.18013683 5.11510413 10 10 C10.72581306 15.84470518 11.2576821 22.04553845 7.875 27.125 C4.56397586 30.83150758 1.39625443 32.71388007 -3.6171875 33.3125 C-8.17256364 33.51002308 -11.2750295 33.34271333 -15.4375 31.375 C-19.31672979 27.77961629 -21.70422042 25.36925482 -22.3828125 19.93359375 C-22.55497243 14.88930766 -22.48628626 11.06608911 -20.375 6.4375 C-14.17653454 0.07591703 -8.78480239 -1.54078995 0 0 Z " fill="#F2F2F2" transform="translate(113,43)"/>
<path d="M0 0 C2.82306415 2.04672151 4.66122178 3.84216595 6.5 6.8125 C6.75 9.625 6.75 9.625 6.5 11.8125 C3.86 11.8125 1.22 11.8125 -1.5 11.8125 C-1.78875 11.173125 -2.0775 10.53375 -2.375 9.875 C-3.32823451 7.66043921 -3.32823451 7.66043921 -5.5 6.8125 C-7.41500303 6.65351146 -7.41500303 6.65351146 -9.5 6.6875 C-10.20125 6.68492188 -10.9025 6.68234375 -11.625 6.6796875 C-13.59153775 6.69872764 -13.59153775 6.69872764 -15.5 7.8125 C-15.65511063 10.24328366 -15.65511063 10.24328366 -14.5 12.8125 C-11.69400256 14.06496238 -9.17882013 14.9798437 -6.25 15.8125 C-0.38305932 17.51420961 3.46044144 18.92745244 7.5 23.8125 C9.03597454 26.88444908 8.7265038 29.41494293 8.5 32.8125 C6.75583626 37.49420268 4.62964161 40.02499191 0.5 42.8125 C-5.88545217 44.94098406 -13.55891815 44.65971198 -19.7734375 42 C-23.05281768 39.7444987 -24.97971067 36.43780532 -26.5 32.8125 C-26.5 31.8225 -26.5 30.8325 -26.5 29.8125 C-23.53 29.4825 -20.56 29.1525 -17.5 28.8125 C-17.231875 29.59625 -16.96375 30.38 -16.6875 31.1875 C-15.65185568 34.09364923 -15.65185568 34.09364923 -12.5 35.8125 C-8.2524747 36.12141093 -5.1413547 36.14296701 -1.5 33.8125 C-1.5 32.1625 -1.5 30.5125 -1.5 28.8125 C-4.72342953 27.37986465 -7.87667213 26.01256957 -11.23828125 24.93359375 C-17.36877905 22.95092937 -21.33398567 21.59866411 -24.5 15.8125 C-25.32816199 11.93614515 -25.42210885 8.52239476 -23.5078125 4.97265625 C-17.57846517 -2.55871971 -8.67533343 -2.9434167 0 0 Z " fill="#070400" transform="translate(205.5,32.1875)"/>
<path d="M0 0 C3.70358847 3.26268508 7.35511373 6.60478861 7.86328125 11.703125 C8.02136908 17.79366678 7.88990941 21.5865193 3.625 26.3125 C-1.06023168 30.54063591 -4.76103687 31.73711126 -10.95703125 31.65625 C-16.3534326 30.88907178 -20.13783441 27.93627983 -23.375 23.6875 C-25.15760856 17.67119612 -25.69288055 11.13576109 -22.8125 5.375 C-16.88985976 -2.06626595 -8.65210034 -4.32605017 0 0 Z " fill="#080500" transform="translate(280.375,44.6875)"/>
<path d="M0 0 C2.64 0 5.28 0 8 0 C8 4.95 8 9.9 8 15 C9.98 13.68 11.96 12.36 14 11 C19.03645826 10.38148758 21.93090016 10.97724012 26 14 C28 16 28 16 28.22705078 18.70556641 C28.21657715 19.82624512 28.20610352 20.94692383 28.1953125 22.1015625 C28.18886719 23.31328125 28.18242187 24.525 28.17578125 25.7734375 C28.15902344 27.04445313 28.14226562 28.31546875 28.125 29.625 C28.11597656 30.90375 28.10695312 32.1825 28.09765625 33.5 C28.07402303 36.66685167 28.04107629 39.83333424 28 43 C25.36 43 22.72 43 20 43 C19.97494385 42.27820557 19.9498877 41.55641113 19.92407227 40.81274414 C19.80848698 37.562465 19.68559226 34.31250312 19.5625 31.0625 C19.52318359 29.92619141 19.48386719 28.78988281 19.44335938 27.61914062 C19.40146484 26.53955078 19.35957031 25.45996094 19.31640625 24.34765625 C19.27974854 23.34742432 19.24309082 22.34719238 19.20532227 21.31665039 C19.25328159 19.03930812 19.25328159 19.03930812 18 18 C15.0842309 17.58297878 15.0842309 17.58297878 12 18 C9.20189966 20.87325848 8.60864884 23.03631793 8.48828125 26.984375 C8.45283203 27.91894531 8.41738281 28.85351562 8.38085938 29.81640625 C8.34702148 31.26853516 8.34702148 31.26853516 8.3125 32.75 C8.27833984 33.73355469 8.24417969 34.71710938 8.20898438 35.73046875 C8.12664727 38.15353199 8.05745162 40.57623998 8 43 C5.36 43 2.72 43 0 43 C0 28.81 0 14.62 0 0 Z " fill="#070400" transform="translate(221,32)"/>
<path d="M0 0 C3.58552881 1.63687185 4.79315055 2.68972583 7 6 C7.22705078 8.72729492 7.22705078 8.72729492 7.1953125 11.98046875 C7.18886719 13.14384766 7.18242187 14.30722656 7.17578125 15.50585938 C7.15902344 16.72080078 7.14226562 17.93574219 7.125 19.1875 C7.11597656 20.41404297 7.10695312 21.64058594 7.09765625 22.90429688 C7.07406017 25.93639295 7.04113841 28.96809938 7 32 C4.03 32 1.06 32 -2 32 C-2.01981934 31.31373535 -2.03963867 30.6274707 -2.06005859 29.92041016 C-2.15510945 26.82154221 -2.26486847 23.72336706 -2.375 20.625 C-2.4059375 19.54476562 -2.436875 18.46453125 -2.46875 17.3515625 C-2.50742188 16.3203125 -2.54609375 15.2890625 -2.5859375 14.2265625 C-2.63306885 12.79691162 -2.63306885 12.79691162 -2.68115234 11.33837891 C-2.78555796 8.81104824 -2.78555796 8.81104824 -5 7 C-8.29714793 7.32971479 -9.6226839 7.6226839 -12 10 C-12.37051993 12.3245339 -12.37051993 12.3245339 -12.4140625 15.0078125 C-12.47207031 16.48701172 -12.47207031 16.48701172 -12.53125 17.99609375 C-12.57765625 19.54490234 -12.57765625 19.54490234 -12.625 21.125 C-12.68300781 22.68541016 -12.68300781 22.68541016 -12.7421875 24.27734375 C-12.83664766 26.85138311 -12.92221214 29.42541155 -13 32 C-15.97 32 -18.94 32 -22 32 C-22 21.77 -22 11.54 -22 1 C-19.36 1 -16.72 1 -14 1 C-13.67 1.66 -13.34 2.32 -13 3 C-12.34 2.505 -11.68 2.01 -11 1.5 C-7.17658258 -0.41170871 -4.2008404 -0.63777941 0 0 Z " fill="#F5F5F5" transform="translate(151,43)"/>
<path d="M0 0 C0.66 0.33 1.32 0.66 2 1 C1.67 3.31 1.34 5.62 1 8 C-1.05982859 8.51495715 -3.11755467 9.02686964 -5.1875 9.5 C-7.00563141 9.84109624 -7.00563141 9.84109624 -8 11 C-8.15686249 12.55948542 -8.25076639 14.12542668 -8.31640625 15.69140625 C-8.35830078 16.63564453 -8.40019531 17.57988281 -8.44335938 18.55273438 C-8.48267578 19.54595703 -8.52199219 20.53917969 -8.5625 21.5625 C-8.60568359 22.55958984 -8.64886719 23.55667969 -8.69335938 24.58398438 C-8.79980298 27.0558415 -8.90181928 29.5278031 -9 32 C-11.97 32 -14.94 32 -18 32 C-18 21.77 -18 11.54 -18 1 C-14.66666667 1 -11.33333333 1 -8 1 C-5.26094655 -0.36952673 -3.02912668 -0.12621361 0 0 Z " fill="#F5F5F5" transform="translate(87,43)"/>
<path d="M0 0 C3.41062591 0.78160177 5.01508245 2.01412864 7.0859375 4.83984375 C8.80164499 8.30791915 8.48678535 10.8540654 8 14.6875 C6.6038245 17.60677604 5.27797004 19.40952996 3 21.6875 C-0.86134088 22.28815303 -2.54746829 21.97279173 -5.875 19.875 C-8.96584744 15.23872884 -9.00709788 11.10471198 -8 5.6875 C-5.57949999 2.05674998 -4.22995247 0.96936411 0 0 Z " fill="#F29100" transform="translate(272,48.3125)"/>
<path d="M0 0 C2.4375 0.625 2.4375 0.625 4.75 2.4375 C7.24036826 7.14152894 7.19462747 11.4109675 6.4375 16.625 C4.875 19.875 4.875 19.875 2.4375 21.625 C-1.125 21.8125 -1.125 21.8125 -4.5625 20.625 C-7.62469015 16.6737869 -8.15342261 12.62565155 -7.98046875 7.75 C-7.10146877 3.28106554 -4.27180492 1.04190364 0 0 Z " fill="#F49200" transform="translate(309.5625,48.375)"/>
<path d="M0 0 C2.76215522 2.9462989 3.21867989 5.5919973 3.375 9.5 C3.21867989 13.4080027 2.76215522 16.0537011 0 19 C-2.875 20.125 -2.875 20.125 -6 20 C-8.875 18.3125 -8.875 18.3125 -11 15 C-11.69588635 10.88080178 -11.72102109 7.11679786 -11 3 C-7.78189566 -1.25925575 -4.972386 -1.83762091 0 0 Z " fill="#050505" transform="translate(111,50)"/>
<path d="M0 0 C10.34806739 -0.36957384 10.34806739 -0.36957384 13.3359375 1.32421875 C15 3 15 3 15.375 6 C15 9 15 9 13 12 C9.98509443 13.00496852 7.95818308 13.10335303 4.8125 13.0625 C3.224375 13.041875 1.63625 13.02125 0 13 C0 8.71 0 4.42 0 0 Z " fill="#0C0C0C" transform="translate(38,39)"/>
</svg>
