<?xml version="1.0" encoding="UTF-8"?>
<svg version="1.1" xmlns="http://www.w3.org/2000/svg" width="193" height="151">
<path d="M0 0 C1.78700317 -0.01418472 1.78700317 -0.01418472 3.61010742 -0.02865601 C5.54140503 -0.01954697 5.54140503 -0.01954697 7.51171875 -0.01025391 C8.8454606 -0.01227496 10.17920138 -0.01518666 11.51293945 -0.01895142 C14.30723601 -0.02337336 17.10124473 -0.01694831 19.89550781 -0.00292969 C23.4769634 0.01416265 27.05774457 0.0043207 30.63917542 -0.01364708 C33.39299601 -0.02448872 36.14665676 -0.02103695 38.90048218 -0.0132637 C40.8631026 -0.01028969 42.82572923 -0.01939932 44.78833008 -0.02865601 C45.97966553 -0.01919952 47.17100098 -0.00974304 48.3984375 0 C49.44862061 0.00238678 50.49880371 0.00477356 51.58081055 0.00723267 C54.19921875 0.38818359 54.19921875 0.38818359 56.0375061 1.40646362 C57.90025509 4.58405396 57.61530463 7.90316209 57.58740234 11.48388672 C57.5926593 12.30855942 57.59791626 13.13323212 57.60333252 13.9828949 C57.61654851 16.71193316 57.6077889 19.44038928 57.59765625 22.16943359 C57.59967653 24.06368115 57.60258758 25.95792796 57.60635376 27.85217285 C57.61077928 31.82339885 57.60433873 35.79442251 57.59033203 39.765625 C57.57324003 44.86036535 57.58307999 49.95463161 57.60104942 55.04935455 C57.61188111 58.96123844 57.60844375 62.8730096 57.60066605 66.78489685 C57.59866234 68.66361039 57.60112929 70.54233411 57.60810471 72.42103577 C57.61570909 75.0451271 57.60412951 77.66844673 57.58740234 80.29248047 C57.59347504 81.07179428 57.59954773 81.85110809 57.60580444 82.65403748 C57.5714079 85.56122121 57.52868209 87.82616502 56.0375061 90.36990356 C53.42139746 91.81904109 51.38435853 91.769581 48.3984375 91.77636719 C47.20710205 91.78582367 46.0157666 91.79528015 44.78833008 91.80502319 C42.85703247 91.79591415 42.85703247 91.79591415 40.88671875 91.78662109 C39.5529769 91.78864215 38.21923612 91.79155385 36.88549805 91.7953186 C34.09120149 91.79974055 31.29719277 91.79331549 28.50292969 91.77929688 C24.9214741 91.76220454 21.34069293 91.77204648 17.75926208 91.79001427 C15.00544149 91.8008559 12.25178074 91.79740414 9.49795532 91.78963089 C7.5353349 91.78665688 5.57270827 91.79576651 3.61010742 91.80502319 C1.82310425 91.79083847 1.82310425 91.79083847 0 91.77636719 C-1.05018311 91.77398041 -2.10036621 91.77159363 -3.18237305 91.76913452 C-5.80078125 91.38818359 -5.80078125 91.38818359 -7.6390686 90.36990356 C-9.50181759 87.19231323 -9.21686713 83.87320509 -9.18896484 80.29248047 C-9.1942218 79.46780777 -9.19947876 78.64313507 -9.20489502 77.79347229 C-9.21811101 75.06443403 -9.2093514 72.3359779 -9.19921875 69.60693359 C-9.20123903 67.71268603 -9.20415008 65.81843923 -9.20791626 63.92419434 C-9.21234178 59.95296834 -9.20590123 55.98194468 -9.19189453 52.01074219 C-9.17480253 46.91600184 -9.18464249 41.82173558 -9.20261192 36.72701263 C-9.21344361 32.81512875 -9.21000625 28.90335758 -9.20222855 24.99147034 C-9.20022484 23.1127568 -9.20269179 21.23403308 -9.20966721 19.35533142 C-9.21727159 16.73124008 -9.20569201 14.10792046 -9.18896484 11.48388672 C-9.19503754 10.70457291 -9.20111023 9.92525909 -9.20736694 9.12232971 C-9.1729704 6.21514598 -9.13024459 3.95020217 -7.6390686 1.40646362 C-5.02295996 -0.0426739 -2.98592103 0.00678618 0 0 Z " fill="#F59716" transform="translate(100.80078125,29.61181640625)"/>
<path d="M0 0 C3.57632721 2.14730852 5.61617493 4.58057277 7.4375 8.375 C7.6875 11.75 7.6875 11.75 7.4375 14.375 C4.1375 14.375 0.8375 14.375 -2.5625 14.375 C-2.830625 13.570625 -3.09875 12.76625 -3.375 11.9375 C-3.766875 11.091875 -4.15875 10.24625 -4.5625 9.375 C-7.20690639 8.4935312 -8.84310752 8.21325182 -11.5625 8.1875 C-12.5834375 8.16623047 -12.5834375 8.16623047 -13.625 8.14453125 C-15.88864132 8.26559589 -15.88864132 8.26559589 -18.5625 10.375 C-18.5625 11.695 -18.5625 13.015 -18.5625 14.375 C-17.89605469 14.61734375 -17.22960937 14.8596875 -16.54296875 15.109375 C-14.5995397 15.81607647 -12.65828227 16.52876674 -10.71875 17.24609375 C-8.69262091 17.97078596 -6.65106793 18.65442588 -4.59375 19.28515625 C0.85269762 21.01335597 5.00022112 22.70080359 8.4765625 27.3828125 C10.24736827 31.0539952 10.15837322 34.42461475 9.4375 38.375 C7.46078093 43.88900582 4.44858096 46.91412652 -0.80078125 49.4609375 C-7.37190887 51.63582274 -15.82742342 51.62461089 -22.1875 48.75 C-25.72972747 46.58825519 -27.72202222 44.12957467 -29.5625 40.375 C-30.3125 36.5 -30.3125 36.5 -30.5625 33.375 C-26.1075 32.88 -26.1075 32.88 -21.5625 32.375 C-21.15 33.32375 -20.7375 34.2725 -20.3125 35.25 C-18.84800642 38.31446871 -18.84800642 38.31446871 -16.875 39.75 C-12.10464734 41.0392845 -8.09341941 40.98098893 -3.5625 39.1875 C-1.28032146 37.51902846 -1.28032146 37.51902846 -1.25 34.6875 C-1.353125 33.924375 -1.45625 33.16125 -1.5625 32.375 C-5.20726302 30.97316807 -8.81869979 29.60221834 -12.5546875 28.4609375 C-25.110936 24.60951963 -25.110936 24.60951963 -28.9375 18 C-30.08690181 13.1725124 -30.2006688 9.7311087 -28.0625 5.1875 C-21.00939596 -2.74724205 -9.71373743 -4.32125142 0 0 Z " fill="#070400" transform="translate(135.5625,49.625)"/>
<path d="M0 0 C4.82625 -0.0825 9.6525 -0.165 14.625 -0.25 C16.13658691 -0.28641602 17.64817383 -0.32283203 19.20556641 -0.36035156 C20.40874512 -0.3703418 21.61192383 -0.38033203 22.8515625 -0.390625 C24.68968506 -0.4220459 24.68968506 -0.4220459 26.56494141 -0.45410156 C31.49509863 0.1976463 34.57005902 2.42706492 37.875 6.0625 C39.86067887 11.24732815 39.96006268 16.83407901 38.34375 22.1640625 C36.42726661 26.04659351 34.07689778 27.84502214 30.12866211 29.42431641 C25.99249647 30.542917 21.81329138 30.30591715 17.5625 30.1875 C12.8290625 30.0946875 12.8290625 30.0946875 8 30 C8 36.6 8 43.2 8 50 C5.36 50 2.72 50 0 50 C0 33.5 0 17 0 0 Z M8 6 C8 11.94 8 17.88 8 24 C18.99302826 24.65141655 18.99302826 24.65141655 29 21 C31.32536063 17.51195905 31.33457898 16.09859246 31 12 C30.18597702 9.55793107 29.5558757 8.39989017 27.46875 6.8984375 C23.7502942 5.545202 20.16969329 5.79114439 16.25 5.875 C13.5275 5.91625 10.805 5.9575 8 6 Z " fill="#FFFFFF" transform="translate(40,49)"/>
</svg>
