<?xml version="1.0" encoding="UTF-8"?>
<svg version="1.1" xmlns="http://www.w3.org/2000/svg" width="357" height="109">
<path d="M0 0 C1.00522375 -0.00701996 1.00522375 -0.00701996 2.03075504 -0.01418173 C4.28103871 -0.02616795 6.53071744 -0.01666083 8.78100586 -0.00723267 C10.39232744 -0.01129678 12.00364623 -0.01663775 13.61495972 -0.02316284 C17.99507835 -0.03686144 22.37498545 -0.03152736 26.75510788 -0.02202559 C31.33414032 -0.01444213 35.91315437 -0.02147093 40.4921875 -0.02618408 C48.18256896 -0.03164548 55.87286406 -0.02443997 63.56323242 -0.01016235 C72.4604729 0.00616491 81.35750715 0.00087667 90.25474262 -0.01564157 C97.88707656 -0.02924552 105.51934834 -0.03118145 113.15169048 -0.02332556 C117.71306935 -0.01864303 122.27435121 -0.01804007 126.83572388 -0.02793503 C131.12360435 -0.03658658 135.41121836 -0.03061612 139.69906998 -0.01325226 C141.27488894 -0.00927769 142.85073023 -0.01043799 144.42654037 -0.01704025 C146.57356508 -0.02520795 148.7197297 -0.01499331 150.86669922 0 C152.06942978 0.00113108 153.27216034 0.00226215 154.51133728 0.00342751 C157.43334961 0.38095093 157.43334961 0.38095093 159.31995583 1.71500969 C161.13353588 4.42862085 160.81536474 6.97234209 160.8215332 10.1914978 C160.82941864 11.22368187 160.82941864 11.22368187 160.83746338 12.27671814 C160.85066703 14.55127665 160.84192457 16.8251353 160.83178711 19.09970093 C160.83380775 20.68006525 160.83671911 22.26042867 160.84048462 23.84078979 C160.84490845 27.15293251 160.83847521 30.46483251 160.82446289 33.77694702 C160.80737075 38.02424183 160.81721165 42.27096795 160.83518028 46.51824188 C160.84601666 49.781609 160.8425725 53.04484111 160.83479691 56.30821228 C160.83279448 57.87432421 160.83525566 59.44044837 160.84223557 61.00654602 C160.84984792 63.19482936 160.83825021 65.38218954 160.8215332 67.57040405 C160.81914642 68.81600098 160.81675964 70.0615979 160.81430054 71.34494019 C160.43334961 74.38095093 160.43334961 74.38095093 159.31995583 76.04689217 C156.51820244 78.02807065 154.27486175 77.75869674 150.86669922 77.76190186 C150.19655005 77.76658183 149.52640089 77.7712618 148.83594418 77.77608359 C146.58566051 77.78806981 144.33598178 77.77856269 142.08569336 77.76913452 C140.47437178 77.77319863 138.86305299 77.77853961 137.2517395 77.7850647 C132.87162087 77.79876329 128.49171376 77.79342921 124.11159134 77.78392744 C119.5325589 77.77634399 114.95354485 77.78337279 110.37451172 77.78808594 C102.68413025 77.79354733 94.99383516 77.78634183 87.3034668 77.77206421 C78.40622632 77.75573695 69.50919207 77.76102519 60.6119566 77.77754343 C52.97962266 77.79114738 45.34735088 77.7930833 37.71500874 77.78522742 C33.15362987 77.78054489 28.59234801 77.77994193 24.03097534 77.78983688 C19.74309487 77.79848844 15.45548086 77.79251798 11.16762924 77.77515411 C9.59181028 77.77117955 8.01596898 77.77233984 6.44015884 77.77894211 C4.29313414 77.78710981 2.14696952 77.77689517 0 77.76190186 C-1.20273056 77.76077078 -2.40546112 77.7596397 -3.64463806 77.75847435 C-6.56665039 77.38095093 -6.56665039 77.38095093 -8.45325661 76.04689217 C-10.26683666 73.33328101 -9.94866552 70.78955976 -9.95483398 67.57040405 C-9.96009094 66.88228134 -9.9653479 66.19415863 -9.97076416 65.48518372 C-9.98396781 63.2106252 -9.97522535 60.93676656 -9.96508789 58.66220093 C-9.96710854 57.0818366 -9.97001989 55.50147319 -9.9737854 53.92111206 C-9.97820923 50.60896935 -9.97177599 47.29706934 -9.95776367 43.98495483 C-9.94067153 39.73766003 -9.95051243 35.49093391 -9.96848106 31.24365997 C-9.97931745 27.98029285 -9.97587328 24.71706074 -9.96809769 21.45368958 C-9.96609527 19.88757765 -9.96855644 18.32145349 -9.97553635 16.75535583 C-9.9831487 14.56707249 -9.97155099 12.37971232 -9.95483398 10.1914978 C-9.9524472 8.94590088 -9.95006042 7.70030396 -9.94760132 6.41696167 C-9.56665039 3.38095093 -9.56665039 3.38095093 -8.45325661 1.71500969 C-5.65150322 -0.2661688 -3.40816253 0.00320512 0 0 Z " fill="#FC9700" transform="translate(176.566650390625,15.619049072265625)"/>
<path d="M0 0 C4.45217259 2.311705 6.83146451 4.50714343 9 9 C9.83769856 15.29670081 10.49441908 22.8186586 6.8125 28.3125 C3.17145637 31.79171947 0.9786685 32.74740402 -3.9375 33.375 C-7 33 -7 33 -13 29 C-13 33.95 -13 38.9 -13 44 C-15.64 44 -18.28 44 -21 44 C-21 29.81 -21 15.62 -21 1 C-18.36 1 -15.72 1 -13 1 C-12.67 1.66 -12.34 2.32 -12 3 C-11.319375 2.505 -10.63875 2.01 -9.9375 1.5 C-6.25859625 -0.37858915 -4.0908775 -0.50238846 0 0 Z " fill="#060400" transform="translate(315,43)"/>
<path d="M0 0 C4.16625 -0.0825 8.3325 -0.165 12.625 -0.25 C13.92775879 -0.28641602 15.23051758 -0.32283203 16.57275391 -0.36035156 C27.42619436 -0.46453384 27.42619436 -0.46453384 32 4 C34.93834873 8.2085283 34.51305803 13.06983295 34 18 C32.26907618 22.19065766 29.78568095 24.54744863 26 27 C23.20326612 27.47227357 20.51320523 27.38028856 17.6875 27.25 C15.150625 27.1675 12.61375 27.085 10 27 C10 32.28 10 37.56 10 43 C6.7 43 3.4 43 0 43 C0 28.81 0 14.62 0 0 Z M10 7 C10 11.29 10 15.58 10 20 C12.6296875 19.87625 12.6296875 19.87625 15.3125 19.75 C16.29863281 19.70359375 17.28476562 19.6571875 18.30078125 19.609375 C21.10634601 19.23014356 21.10634601 19.23014356 22.8671875 17.1171875 C24.23543823 15.01244642 24.23543823 15.01244642 23.8125 12.375 C23.14323449 9.84979635 23.14323449 9.84979635 21 8 C17.4080695 6.66965537 13.78529987 6.92720577 10 7 Z " fill="#FFFFFF" transform="translate(29,32)"/>
<path d="M0 0 C2.82306415 2.04672151 4.66122178 3.84216595 6.5 6.8125 C6.75 9.625 6.75 9.625 6.5 11.8125 C3.86 11.8125 1.22 11.8125 -1.5 11.8125 C-1.78875 11.173125 -2.0775 10.53375 -2.375 9.875 C-3.32823451 7.66043921 -3.32823451 7.66043921 -5.5 6.8125 C-7.41500303 6.65351146 -7.41500303 6.65351146 -9.5 6.6875 C-10.20125 6.68492188 -10.9025 6.68234375 -11.625 6.6796875 C-13.59153775 6.69872764 -13.59153775 6.69872764 -15.5 7.8125 C-15.65511063 10.24328366 -15.65511063 10.24328366 -14.5 12.8125 C-11.69400256 14.06496238 -9.17882013 14.9798437 -6.25 15.8125 C-0.38305932 17.51420961 3.46044144 18.92745244 7.5 23.8125 C9.03597454 26.88444908 8.7265038 29.41494293 8.5 32.8125 C6.75583626 37.49420268 4.62964161 40.02499191 0.5 42.8125 C-5.88545217 44.94098406 -13.55891815 44.65971198 -19.7734375 42 C-23.05281768 39.7444987 -24.97971067 36.43780532 -26.5 32.8125 C-26.5 31.8225 -26.5 30.8325 -26.5 29.8125 C-23.53 29.4825 -20.56 29.1525 -17.5 28.8125 C-17.231875 29.59625 -16.96375 30.38 -16.6875 31.1875 C-15.65185568 34.09364923 -15.65185568 34.09364923 -12.5 35.8125 C-8.2524747 36.12141093 -5.1413547 36.14296701 -1.5 33.8125 C-1.5 32.1625 -1.5 30.5125 -1.5 28.8125 C-4.72342953 27.37986465 -7.87667213 26.01256957 -11.23828125 24.93359375 C-17.36877905 22.95092937 -21.33398567 21.59866411 -24.5 15.8125 C-25.32816199 11.93614515 -25.42210885 8.52239476 -23.5078125 4.97265625 C-17.57846517 -2.55871971 -8.67533343 -2.9434167 0 0 Z " fill="#070400" transform="translate(205.5,32.1875)"/>
<path d="M0 0 C3.70358847 3.26268508 7.35511373 6.60478861 7.86328125 11.703125 C8.02136908 17.79366678 7.88990941 21.5865193 3.625 26.3125 C-1.06023168 30.54063591 -4.76103687 31.73711126 -10.95703125 31.65625 C-16.3534326 30.88907178 -20.13783441 27.93627983 -23.375 23.6875 C-25.15760856 17.67119612 -25.69288055 11.13576109 -22.8125 5.375 C-16.88985976 -2.06626595 -8.65210034 -4.32605017 0 0 Z " fill="#080500" transform="translate(280.375,44.6875)"/>
<path d="M0 0 C4.88999896 2.40652309 8.66355748 5.8130986 10.8125 10.9375 C11.37746574 17.15212313 10.9987502 21.41612031 8 27 C4.63769181 30.86665442 2.50153648 32.81229452 -2.70703125 33.203125 C-13.36010198 33.36392607 -13.36010198 33.36392607 -18 30 C-22.60470372 25.14639338 -23.37380438 20.88464004 -23.27734375 14.37890625 C-22.65393828 9.03166776 -20.2642199 5.2966358 -16.5625 1.5 C-11.17743808 -0.76739449 -5.76125008 -0.80037392 0 0 Z M-7 6 C-10.52381687 8.54604597 -10.52381687 8.54604597 -13 12 C-13.55112923 16.59876684 -13.61753151 19.97787887 -11.1875 24 C-9.07967048 26.19941932 -9.07967048 26.19941932 -6 27 C-3.30594636 25.75153612 -1.47823682 24.63764909 0.3125 22.25 C1.62625715 17.95043115 1.56088935 14.32842214 -0.1875 10.1875 C-2.27211886 7.67158069 -3.90108642 6.92129863 -7 6 Z " fill="#FFFFFF" transform="translate(113,43)"/>
<path d="M0 0 C0.94488281 -0.04898438 1.88976562 -0.09796875 2.86328125 -0.1484375 C5.6875 0.375 5.6875 0.375 8.5234375 2.03515625 C12.01128765 7.41802968 11.21038186 12.93106719 11 19.1875 C10.97744141 20.45271484 10.95488281 21.71792969 10.93164062 23.02148438 C10.87279078 26.14052619 10.7906137 29.25715902 10.6875 32.375 C7.7175 32.375 4.7475 32.375 1.6875 32.375 C1.62691406 30.97765625 1.56632812 29.5803125 1.50390625 28.140625 C1.41948297 26.30207358 1.33483586 24.46353243 1.25 22.625 C1.21068359 21.70460938 1.17136719 20.78421875 1.13085938 19.8359375 C1.08896484 18.94648437 1.04707031 18.05703125 1.00390625 17.140625 C0.96724854 16.32368164 0.93059082 15.50673828 0.89282227 14.66503906 C0.69145559 12.41911821 0.48679335 10.48735551 -0.3125 8.375 C-3.16418354 7.09505152 -3.16418354 7.09505152 -5.4375 8.0625 C-7.81478611 9.72660028 -7.8004867 10.57429655 -8.3125 13.375 C-8.45379118 14.88770605 -8.55712817 16.40428128 -8.62890625 17.921875 C-8.67080078 18.76621094 -8.71269531 19.61054687 -8.75585938 20.48046875 C-8.79517578 21.35316406 -8.83449219 22.22585937 -8.875 23.125 C-8.91818359 24.01316406 -8.96136719 24.90132812 -9.00585938 25.81640625 C-9.11163495 28.00243472 -9.2125426 30.18869777 -9.3125 32.375 C-12.6125 32.375 -15.9125 32.375 -19.3125 32.375 C-19.3125 22.145 -19.3125 11.915 -19.3125 1.375 C-15.3125 1.375 -11.3125 1.375 -7.3125 1.375 C-4.7764472 0.1069736 -2.83238836 0.09965101 0 0 Z " fill="#FFFFFF" transform="translate(147.3125,42.625)"/>
<path d="M0 0 C2.64 0 5.28 0 8 0 C8 4.95 8 9.9 8 15 C9.98 13.68 11.96 12.36 14 11 C19.03645826 10.38148758 21.93090016 10.97724012 26 14 C28 16 28 16 28.22705078 18.70556641 C28.21657715 19.82624512 28.20610352 20.94692383 28.1953125 22.1015625 C28.18886719 23.31328125 28.18242187 24.525 28.17578125 25.7734375 C28.15902344 27.04445313 28.14226562 28.31546875 28.125 29.625 C28.11597656 30.90375 28.10695312 32.1825 28.09765625 33.5 C28.07402303 36.66685167 28.04107629 39.83333424 28 43 C25.36 43 22.72 43 20 43 C19.97494385 42.27820557 19.9498877 41.55641113 19.92407227 40.81274414 C19.80848698 37.562465 19.68559226 34.31250312 19.5625 31.0625 C19.52318359 29.92619141 19.48386719 28.78988281 19.44335938 27.61914062 C19.40146484 26.53955078 19.35957031 25.45996094 19.31640625 24.34765625 C19.27974854 23.34742432 19.24309082 22.34719238 19.20532227 21.31665039 C19.25328159 19.03930812 19.25328159 19.03930812 18 18 C15.0842309 17.58297878 15.0842309 17.58297878 12 18 C9.20189966 20.87325848 8.60864884 23.03631793 8.48828125 26.984375 C8.45283203 27.91894531 8.41738281 28.85351562 8.38085938 29.81640625 C8.34702148 31.26853516 8.34702148 31.26853516 8.3125 32.75 C8.27833984 33.73355469 8.24417969 34.71710938 8.20898438 35.73046875 C8.12664727 38.15353199 8.05745162 40.57623998 8 43 C5.36 43 2.72 43 0 43 C0 28.81 0 14.62 0 0 Z " fill="#070400" transform="translate(221,32)"/>
<path d="M0 0 C1.91015625 0.1328125 1.91015625 0.1328125 3.91015625 1.1328125 C2.92015625 4.1028125 1.93015625 7.0728125 0.91015625 10.1328125 C-1.39984375 9.8028125 -3.70984375 9.4728125 -6.08984375 9.1328125 C-7.23835072 13.87161018 -7.41885932 18.59572612 -7.65234375 23.4453125 C-7.69552734 24.28126953 -7.73871094 25.11722656 -7.78320312 25.97851562 C-7.88869682 28.02978185 -7.9897169 30.0812773 -8.08984375 32.1328125 C-11.38984375 32.1328125 -14.68984375 32.1328125 -18.08984375 32.1328125 C-18.08984375 21.9028125 -18.08984375 11.6728125 -18.08984375 1.1328125 C-14.42317708 1.1328125 -10.75651042 1.1328125 -7.08984375 1.1328125 C-5.19099279 -0.76603846 -2.51736472 0.00913744 0 0 Z " fill="#FFFFFF" transform="translate(86.08984375,42.8671875)"/>
<path d="M0 0 C3.41062591 0.78160177 5.01508245 2.01412864 7.0859375 4.83984375 C8.80164499 8.30791915 8.48678535 10.8540654 8 14.6875 C6.6038245 17.60677604 5.27797004 19.40952996 3 21.6875 C-0.86134088 22.28815303 -2.54746829 21.97279173 -5.875 19.875 C-8.96584744 15.23872884 -9.00709788 11.10471198 -8 5.6875 C-5.57949999 2.05674998 -4.22995247 0.96936411 0 0 Z " fill="#F29100" transform="translate(272,48.3125)"/>
<path d="M0 0 C2.4375 0.625 2.4375 0.625 4.75 2.4375 C7.24036826 7.14152894 7.19462747 11.4109675 6.4375 16.625 C4.875 19.875 4.875 19.875 2.4375 21.625 C-1.125 21.8125 -1.125 21.8125 -4.5625 20.625 C-7.62469015 16.6737869 -8.15342261 12.62565155 -7.98046875 7.75 C-7.10146877 3.28106554 -4.27180492 1.04190364 0 0 Z " fill="#F49200" transform="translate(309.5625,48.375)"/>
</svg>
